<svg id="visual" viewBox="0 0 900 600" width="900" height="600" xmlns="http://www.w3.org/2000/svg" xmlns:xlink="http://www.w3.org/1999/xlink" version="1.1"><path d="M0 43L12.5 44C25 45 50 47 75 51C100 55 125 61 150 62C175 63 200 59 225 68C250 77 275 99 300 99C325 99 350 77 375 65C400 53 425 51 450 55C475 59 500 69 525 81C550 93 575 107 600 116C625 125 650 129 675 126C700 123 725 113 750 103C775 93 800 83 825 79C850 75 875 77 887.5 78L900 79L900 0L887.5 0C875 0 850 0 825 0C800 0 775 0 750 0C725 0 700 0 675 0C650 0 625 0 600 0C575 0 550 0 525 0C500 0 475 0 450 0C425 0 400 0 375 0C350 0 325 0 300 0C275 0 250 0 225 0C200 0 175 0 150 0C125 0 100 0 75 0C50 0 25 0 12.5 0L0 0Z" fill="#67a3f6"></path><path d="M0 205L12.5 204C25 203 50 201 75 195C100 189 125 179 150 178C175 177 200 185 225 190C250 195 275 197 300 189C325 181 350 163 375 154C400 145 425 145 450 160C475 175 500 205 525 225C550 245 575 255 600 250C625 245 650 225 675 215C700 205 725 205 750 192C775 179 800 153 825 148C850 143 875 159 887.5 167L900 175L900 77L887.5 76C875 75 850 73 825 77C800 81 775 91 750 101C725 111 700 121 675 124C650 127 625 123 600 114C575 105 550 91 525 79C500 67 475 57 450 53C425 49 400 51 375 63C350 75 325 97 300 97C275 97 250 75 225 66C200 57 175 61 150 60C125 59 100 53 75 49C50 45 25 43 12.5 42L0 41Z" fill="#458ff3"></path><path d="M0 379L12.5 379C25 379 50 379 75 371C100 363 125 347 150 346C175 345 200 359 225 365C250 371 275 369 300 377C325 385 350 403 375 408C400 413 425 405 450 388C475 371 500 345 525 336C550 327 575 335 600 356C625 377 650 411 675 420C700 429 725 413 750 402C775 391 800 385 825 390C850 395 875 411 887.5 419L900 427L900 173L887.5 165C875 157 850 141 825 146C800 151 775 177 750 190C725 203 700 203 675 213C650 223 625 243 600 248C575 253 550 243 525 223C500 203 475 173 450 158C425 143 400 143 375 152C350 161 325 179 300 187C275 195 250 193 225 188C200 183 175 175 150 176C125 177 100 187 75 193C50 199 25 201 12.5 202L0 203Z" fill="#107bee"></path><path d="M0 505L12.5 508C25 511 50 517 75 523C100 529 125 535 150 532C175 529 200 517 225 512C250 507 275 509 300 512C325 515 350 519 375 524C400 529 425 535 450 535C475 535 500 529 525 526C550 523 575 523 600 528C625 533 650 543 675 540C700 537 725 521 750 518C775 515 800 525 825 529C850 533 875 531 887.5 530L900 529L900 425L887.5 417C875 409 850 393 825 388C800 383 775 389 750 400C725 411 700 427 675 418C650 409 625 375 600 354C575 333 550 325 525 334C500 343 475 369 450 386C425 403 400 411 375 406C350 401 325 383 300 375C275 367 250 369 225 363C200 357 175 343 150 344C125 345 100 361 75 369C50 377 25 377 12.5 377L0 377Z" fill="#046bce"></path><path d="M0 601L12.5 601C25 601 50 601 75 601C100 601 125 601 150 601C175 601 200 601 225 601C250 601 275 601 300 601C325 601 350 601 375 601C400 601 425 601 450 601C475 601 500 601 525 601C550 601 575 601 600 601C625 601 650 601 675 601C700 601 725 601 750 601C775 601 800 601 825 601C850 601 875 601 887.5 601L900 601L900 527L887.5 528C875 529 850 531 825 527C800 523 775 513 750 516C725 519 700 535 675 538C650 541 625 531 600 526C575 521 550 521 525 524C500 527 475 533 450 533C425 533 400 527 375 522C350 517 325 513 300 510C275 507 250 505 225 510C200 515 175 527 150 530C125 533 100 527 75 521C50 515 25 509 12.5 506L0 503Z" fill="#005baf"></path></svg>