<svg id="visual" viewBox="0 0 900 600" width="900" height="600" xmlns="http://www.w3.org/2000/svg" xmlns:xlink="http://www.w3.org/1999/xlink" version="1.1"><path d="M0 169L13.7 158C27.3 147 54.7 125 82 131C109.3 137 136.7 171 163.8 179C191 187 218 169 245.2 171C272.3 173 299.7 195 327 198C354.3 201 381.7 185 409 189C436.3 193 463.7 217 491 209C518.3 201 545.7 161 573 141C600.3 121 627.7 121 654.8 139C682 157 709 193 736.2 188C763.3 183 790.7 137 818 119C845.3 101 872.7 111 886.3 116L900 121L900 0L886.3 0C872.7 0 845.3 0 818 0C790.7 0 763.3 0 736.2 0C709 0 682 0 654.8 0C627.7 0 600.3 0 573 0C545.7 0 518.3 0 491 0C463.7 0 436.3 0 409 0C381.7 0 354.3 0 327 0C299.7 0 272.3 0 245.2 0C218 0 191 0 163.8 0C136.7 0 109.3 0 82 0C54.7 0 27.3 0 13.7 0L0 0Z" fill="#004cbb"></path><path d="M0 235L13.7 225C27.3 215 54.7 195 82 198C109.3 201 136.7 227 163.8 232C191 237 218 221 245.2 232C272.3 243 299.7 281 327 291C354.3 301 381.7 283 409 280C436.3 277 463.7 289 491 275C518.3 261 545.7 221 573 203C600.3 185 627.7 189 654.8 209C682 229 709 265 736.2 256C763.3 247 790.7 193 818 170C845.3 147 872.7 155 886.3 159L900 163L900 119L886.3 114C872.7 109 845.3 99 818 117C790.7 135 763.3 181 736.2 186C709 191 682 155 654.8 137C627.7 119 600.3 119 573 139C545.7 159 518.3 199 491 207C463.7 215 436.3 191 409 187C381.7 183 354.3 199 327 196C299.7 193 272.3 171 245.2 169C218 167 191 185 163.8 177C136.7 169 109.3 135 82 129C54.7 123 27.3 145 13.7 156L0 167Z" fill="#0059dd"></path><path d="M0 289L13.7 292C27.3 295 54.7 301 82 313C109.3 325 136.7 343 163.8 349C191 355 218 349 245.2 368C272.3 387 299.7 431 327 436C354.3 441 381.7 407 409 390C436.3 373 463.7 373 491 352C518.3 331 545.7 289 573 274C600.3 259 627.7 271 654.8 302C682 333 709 383 736.2 387C763.3 391 790.7 349 818 330C845.3 311 872.7 315 886.3 317L900 319L900 161L886.3 157C872.7 153 845.3 145 818 168C790.7 191 763.3 245 736.2 254C709 263 682 227 654.8 207C627.7 187 600.3 183 573 201C545.7 219 518.3 259 491 273C463.7 287 436.3 275 409 278C381.7 281 354.3 299 327 289C299.7 279 272.3 241 245.2 230C218 219 191 235 163.8 230C136.7 225 109.3 199 82 196C54.7 193 27.3 213 13.7 223L0 233Z" fill="#0066ff"></path><path d="M0 541L13.7 535C27.3 529 54.7 517 82 515C109.3 513 136.7 521 163.8 516C191 511 218 493 245.2 498C272.3 503 299.7 531 327 541C354.3 551 381.7 543 409 530C436.3 517 463.7 499 491 493C518.3 487 545.7 493 573 499C600.3 505 627.7 511 654.8 517C682 523 709 529 736.2 534C763.3 539 790.7 543 818 534C845.3 525 872.7 503 886.3 492L900 481L900 317L886.3 315C872.7 313 845.3 309 818 328C790.7 347 763.3 389 736.2 385C709 381 682 331 654.8 300C627.7 269 600.3 257 573 272C545.7 287 518.3 329 491 350C463.7 371 436.3 371 409 388C381.7 405 354.3 439 327 434C299.7 429 272.3 385 245.2 366C218 347 191 353 163.8 347C136.7 341 109.3 323 82 311C54.7 299 27.3 293 13.7 290L0 287Z" fill="#3c80ff"></path><path d="M0 601L13.7 601C27.3 601 54.7 601 82 601C109.3 601 136.7 601 163.8 601C191 601 218 601 245.2 601C272.3 601 299.7 601 327 601C354.3 601 381.7 601 409 601C436.3 601 463.7 601 491 601C518.3 601 545.7 601 573 601C600.3 601 627.7 601 654.8 601C682 601 709 601 736.2 601C763.3 601 790.7 601 818 601C845.3 601 872.7 601 886.3 601L900 601L900 479L886.3 490C872.7 501 845.3 523 818 532C790.7 541 763.3 537 736.2 532C709 527 682 521 654.8 515C627.7 509 600.3 503 573 497C545.7 491 518.3 485 491 491C463.7 497 436.3 515 409 528C381.7 541 354.3 549 327 539C299.7 529 272.3 501 245.2 496C218 491 191 509 163.8 514C136.7 519 109.3 511 82 513C54.7 515 27.3 527 13.7 533L0 539Z" fill="#6198ff"></path></svg>